<?xml version="1.0" encoding="UTF-8"?>
<svg version="1.1" xmlns="http://www.w3.org/2000/svg" width="512" height="512">
<path d="M0 0 C10.17336543 7.5820365 15.57206438 21.80213063 19.484375 33.5390625 C19.84902192 39.09992809 19.84111736 42.85996709 16.484375 47.5390625 C14.26905753 49.17957222 11.98754199 50.63832002 9.64453125 52.08984375 C6.33454988 54.31046416 4.25052698 57.00675854 2.484375 60.5390625 C1.76218992 67.67803959 2.03477265 72.80141736 6.484375 78.5390625 C11.05784512 82.58073377 15.50345785 83.67966272 21.484375 83.5390625 C23.50022151 82.92196663 25.50188785 82.25613232 27.484375 81.5390625 C32.82949814 80.86957233 36.99422225 81.34606499 41.484375 84.5390625 C50.23134915 95.75313192 55.65061353 111.38984506 54.484375 125.5390625 C52.73517348 134.24961332 48.3615307 140.96000446 41.484375 146.5390625 C36.38162434 149.66956868 30.94988584 152.11907331 25.484375 154.5390625 C24.824375 154.8690625 24.164375 155.1990625 23.484375 155.5390625 C24.72356689 155.55308105 24.72356689 155.55308105 25.98779297 155.56738281 C29.10075169 155.61182253 32.21278424 155.67362314 35.32519531 155.74658203 C37.31552502 155.78814677 39.30622986 155.81030794 41.296875 155.83203125 C52.83249777 156.12333486 61.07103292 158.27571344 69.5078125 166.33984375 C77.99104205 175.77869402 78.83694693 187.02065146 78.796875 199.2265625 C78.81298828 200.21978516 78.82910156 201.21300781 78.84570312 202.23632812 C78.85041127 209.32209235 78.07231427 214.06900397 73.75390625 219.859375 C70.69670163 222.12202214 67.88077677 222.63127921 64.171875 223.4140625 C58.0827027 224.85012587 53.41814502 226.48324398 49.484375 231.5390625 C47.04790165 235.56454021 46.8061881 239.93586892 47.484375 244.5390625 C48.84124953 248.78700492 50.68614706 251.78176932 53.921875 254.8515625 C57.37109702 256.48540451 60.26647671 257.20675876 63.984375 257.9765625 C69.6084266 259.17576164 72.76029482 260.11042661 76.484375 264.5390625 C78.56919885 270.18756449 78.79973273 275.36794981 78.734375 281.3515625 C78.72760742 282.2394043 78.72083984 283.12724609 78.71386719 284.04199219 C78.53356215 295.45152754 76.7519413 306.04804846 68.484375 314.5390625 C59.04351239 322.0003894 50.34638484 323.99196682 38.46658325 323.92674255 C37.28242447 323.93212809 36.09826568 323.93751363 34.8782233 323.94306237 C31.61322868 323.9548434 28.34856409 323.95329443 25.0835669 323.94589555 C21.55380562 323.94114872 18.02409808 323.9536871 14.49435425 323.96391296 C7.58766149 323.98107695 0.6810598 323.98194594 -6.22564875 323.97670006 C-11.84176801 323.9726525 -17.45786044 323.97410887 -23.07397842 323.97944832 C-24.27466752 323.98057095 -24.27466752 323.98057095 -25.49961296 323.98171626 C-27.12594612 323.9832478 -28.75227927 323.98478615 -30.37861241 323.98633123 C-45.61764206 324.00004769 -60.85662032 323.99462469 -76.09564878 323.98314602 C-90.02306103 323.97321542 -103.95034039 323.98615281 -117.87773214 324.01008021 C-132.19421111 324.03448988 -146.51062823 324.04407444 -160.82712758 324.03742748 C-168.8584124 324.0339393 -176.88959506 324.03614078 -184.92086411 324.05367851 C-191.75795791 324.06842392 -198.59487761 324.06900555 -205.43196808 324.0516076 C-208.91696096 324.04311418 -212.40164315 324.04090689 -215.88661957 324.05625916 C-219.67265998 324.06947314 -223.4578613 324.05791608 -227.24386597 324.04026794 C-228.33406064 324.04987295 -229.42425531 324.05947796 -230.54748619 324.06937402 C-241.77880544 323.96199598 -250.24911246 320.78678762 -258.34765625 312.984375 C-266.15968012 304.17297511 -266.74478992 296.15288437 -266.81079102 284.74951172 C-266.8223181 283.36268924 -266.84278202 281.97591138 -266.87231445 280.58935547 C-266.91515694 278.57551931 -266.92858291 276.561126 -266.94140625 274.546875 C-266.95598877 273.34691895 -266.97057129 272.14696289 -266.9855957 270.91064453 C-266.41954492 266.84978151 -265.05570222 264.71946357 -262.515625 261.5390625 C-258.79243687 258.99639744 -255.38961744 258.31689719 -251.015625 257.6640625 C-245.65314043 256.77517239 -243.17552876 255.56495663 -239.515625 251.5390625 C-236.22193957 246.70832387 -235.66997314 242.21838354 -236.515625 236.5390625 C-237.87762269 231.94232029 -239.67470006 229.20106724 -243.453125 226.2265625 C-247.78912078 224.04917934 -252.57333483 223.45237135 -257.33203125 222.73828125 C-260.97847224 221.36471391 -262.97569982 220.15086323 -265.37524414 217.09155273 C-268.02674502 211.15675467 -267.14769914 204.10005201 -266.953125 197.7265625 C-266.93157622 196.18558188 -266.91267149 194.64456189 -266.89648438 193.10351562 C-266.72996809 181.96774868 -266.72996809 181.96774868 -265.515625 179.5390625 C-267.28682303 179.68039749 -269.05757787 179.82729458 -270.828125 179.9765625 C-272.30732422 180.09837891 -272.30732422 180.09837891 -273.81640625 180.22265625 C-276.60938099 180.45718809 -276.60938099 180.45718809 -279.515625 181.5390625 C-283.9271331 182.05163773 -287.54645013 181.91913108 -291.703125 180.2890625 C-296.04237855 176.0462368 -298.11467348 171.05693052 -300.515625 165.5390625 C-300.78971191 164.9193457 -301.06379883 164.29962891 -301.34619141 163.66113281 C-306.68679871 151.48664614 -309.5429798 141.25404316 -304.6640625 128.2734375 C-297.78352352 113.61733007 -283.1112616 108.77119709 -269.203125 102.4765625 C-267.53928171 101.71842936 -265.87562872 100.95987846 -264.2121582 100.20092773 C-251.61423918 94.46062233 -238.98576316 88.78807956 -226.34420776 83.14460754 C-217.99827664 79.41721447 -209.66344559 75.66510717 -201.328125 71.9140625 C-200.4907782 71.53731384 -199.6534314 71.16056519 -198.79071045 70.7723999 C-184.56239914 64.36991514 -170.34589398 57.94151141 -156.13247681 51.50604248 C-144.30848224 46.15286455 -132.47501723 40.82208418 -120.62646484 35.5234375 C-110.95895106 31.19603545 -101.31075494 26.8266204 -91.66339111 22.45452881 C-77.62911608 16.09588497 -63.5886047 9.75126335 -49.5173645 3.47476196 C-47.94466316 2.77289141 -46.37245026 2.06992527 -44.80075073 1.36581421 C-42.63683682 0.39685624 -40.47106981 -0.56782602 -38.3046875 -1.53125 C-37.67128952 -1.81571487 -37.03789154 -2.10017975 -36.38529968 -2.39326477 C-24.1656708 -7.80331157 -11.46578086 -6.65869882 0 0 Z M-26.30859375 23.53125 C-27.81510498 24.20534912 -27.81510498 24.20534912 -29.35205078 24.89306641 C-30.45790527 25.39499512 -31.56375977 25.89692383 -32.703125 26.4140625 C-34.48203878 27.2148349 -36.26095658 28.01559842 -38.03997803 28.81613159 C-39.34199091 29.40263639 -40.64361352 29.99000818 -41.94488525 30.57815552 C-46.75834621 32.75313671 -51.58151452 34.90548143 -56.40931702 37.0484314 C-60.07702409 38.67711236 -63.74223995 40.3113529 -67.40713501 41.9463501 C-69.23141593 42.75902895 -71.05659502 43.56969457 -72.88265991 44.37835693 C-75.46359597 45.52220384 -78.04075453 46.67417822 -80.6171875 47.828125 C-81.40137558 48.17349304 -82.18556366 48.51886108 -82.99351501 48.87469482 C-86.94625209 50.40787272 -86.94625209 50.40787272 -89.515625 53.5390625 C-89.185625 54.1990625 -88.855625 54.8590625 -88.515625 55.5390625 C-88.13885497 60.53126535 -88.44166139 63.51926393 -91.515625 67.5390625 C-95.27942832 69.42096416 -99.4407613 69.33658934 -103.515625 68.5390625 C-106.08760286 66.52182496 -107.71821722 64.23638699 -109.515625 61.5390625 C-119.02451813 65.1571605 -128.2503374 69.4106709 -137.515625 73.6015625 C-139.28768428 74.40121042 -141.05982133 75.20068599 -142.83203125 76 C-148.39465899 78.50986152 -153.95533556 81.02402584 -159.515625 83.5390625 C-160.40185547 83.93986023 -161.28808594 84.34065796 -162.20117188 84.75360107 C-170.06045556 88.30803182 -177.91927962 91.86347713 -185.77709961 95.42114258 C-197.03091047 100.51556569 -208.29260984 105.59215496 -219.55990601 110.65667725 C-222.05114879 111.77693192 -224.54191027 112.89824875 -227.0324707 114.02001953 C-228.24508324 114.56618423 -228.24508324 114.56618423 -229.48219299 115.12338257 C-231.09666268 115.85057517 -232.71111393 116.57780871 -234.32554626 117.30508423 C-239.14618574 119.47565769 -243.97051 121.6377937 -248.79756165 123.79406738 C-251.8757748 125.17067136 -254.95134472 126.55310753 -258.02633667 127.93688965 C-259.45869852 128.57988515 -260.89220501 129.22033788 -262.32693481 129.85803223 C-264.29263343 130.73203982 -266.25410147 131.61494116 -268.21484375 132.5 C-269.31658936 132.99290527 -270.41833496 133.48581055 -271.5534668 133.99365234 C-274.59479859 135.58036876 -277.04334651 137.15779693 -279.515625 139.5390625 C-279.43466438 143.99189656 -278.19678643 147.47218651 -276.515625 151.5390625 C-275.72800781 151.56484375 -274.94039062 151.590625 -274.12890625 151.6171875 C-264.91517969 152.09695551 -255.34587716 153.31889439 -247.515625 158.5390625 C-245.50531872 158.2749039 -243.50464981 157.93262495 -241.515625 157.5390625 C-239.53838751 157.46768747 -237.55901945 157.44378054 -235.58056641 157.46069336 C-234.43141754 157.46656967 -233.28226868 157.47244598 -232.09829712 157.47850037 C-230.86703094 157.48688431 -229.63576477 157.49526825 -228.3671875 157.50390625 C-225.72523065 157.50019055 -223.08334593 157.4946088 -220.44140625 157.48632812 C-216.30315121 157.47416447 -212.16592339 157.47202612 -208.02783203 157.51489258 C-186.60031474 157.87596147 -186.60031474 157.87596147 -167.29937744 149.67874146 C-164.09749342 147.63298681 -160.69028988 145.97535103 -157.3046875 144.2578125 C-155.94348874 143.55569797 -154.58280844 142.85257734 -153.22265625 142.1484375 C-152.55057129 141.80232422 -151.87848633 141.45621094 -151.18603516 141.09960938 C-149.80809206 140.38514473 -148.43378382 139.66363099 -147.06298828 138.93554688 C-131.54723266 130.71208685 -131.54723266 130.71208685 -123.515625 132.5390625 C-119.95882328 134.64410841 -118.82093564 135.62313058 -117.515625 139.5390625 C-117.26815499 143.99352262 -117.180286 147.64683084 -119.515625 151.5390625 C-121.890625 152.6640625 -121.890625 152.6640625 -124.515625 153.5390625 C-125.86920103 154.51148716 -127.20606187 155.50812982 -128.515625 156.5390625 C-119.71872015 156.65492187 -110.92207796 156.7437595 -102.12457657 156.79812336 C-98.03948262 156.82421577 -93.95491068 156.85960592 -89.87011719 156.91625977 C-85.92786278 156.97059439 -81.98611038 157.00048572 -78.04351044 157.01344872 C-76.53954921 157.0226862 -75.03561543 157.04072545 -73.53186798 157.06771278 C-71.42461332 157.10402639 -69.31943136 157.10900748 -67.21191406 157.10668945 C-66.01278381 157.11779251 -64.81365356 157.12889557 -63.57818604 157.14033508 C-59.61618538 156.36247553 -58.73915068 154.79458391 -56.515625 151.5390625 C-53.54125373 150.4323197 -50.67345296 150.3122885 -47.515625 150.5390625 C-44.765625 152.0390625 -44.765625 152.0390625 -42.515625 153.5390625 C-37.66745333 153.13953724 -33.37594986 150.82632397 -29.015625 148.8203125 C-28.19059982 148.44612686 -27.36557465 148.07194122 -26.51554871 147.68641663 C-23.84678605 146.47523871 -21.18120759 145.25722098 -18.515625 144.0390625 C-14.88805555 142.38897398 -11.2587983 140.74262845 -7.62890625 139.09765625 C-6.74439285 138.69643051 -5.85987946 138.29520477 -4.94856262 137.88182068 C2.57134548 134.47951408 10.13749928 131.20097854 17.78320312 128.08984375 C21.9749185 126.3497473 25.27410777 124.95959696 27.359375 120.7890625 C27.55263802 117.31032811 25.88919142 114.66896436 24.484375 111.5390625 C23.30101562 111.44109375 22.11765625 111.343125 20.8984375 111.2421875 C5.81635551 109.87108914 -5.15529603 106.70304077 -15.765625 95.2265625 C-24.17738319 84.78196275 -26.72294663 72.69886831 -25.515625 59.5390625 C-23.80506131 51.06399695 -20.67427517 44.40806727 -15.515625 37.5390625 C-14.71605192 36.35687163 -13.92330225 35.17000654 -13.140625 33.9765625 C-12.604375 33.1721875 -12.068125 32.3678125 -11.515625 31.5390625 C-12.10955882 30.24265872 -12.71620489 28.95207411 -13.328125 27.6640625 C-13.66457031 26.94476563 -14.00101562 26.22546875 -14.34765625 25.484375 C-15.51029597 23.23363444 -15.51029597 23.23363444 -18.515625 21.5390625 C-21.79961929 21.5390625 -23.33981682 22.19259139 -26.30859375 23.53125 Z M-237.95785904 185.40799332 C-239.9049397 188.07165635 -239.93726551 189.52789289 -239.765625 192.7890625 C-239.72953125 193.68109375 -239.6934375 194.573125 -239.65625 195.4921875 C-239.60984375 196.16765625 -239.5634375 196.843125 -239.515625 197.5390625 C-238.65839844 197.97476563 -237.80117187 198.41046875 -236.91796875 198.859375 C-224.41128653 205.37356574 -215.83105849 212.23248296 -210.640625 225.9140625 C-207.01765865 238.66237534 -208.22259609 251.58372662 -214.203125 263.4140625 C-220.54574006 273.93879114 -228.63019103 278.64673263 -239.515625 283.5390625 C-239.92266665 288.98531876 -239.92266665 288.98531876 -238.203125 293.9765625 C-234.74040134 297.18278812 -230.67242899 296.67775405 -226.24543762 296.65931702 C-225.49966782 296.66017144 -224.75389801 296.66102587 -223.98552912 296.66190618 C-221.47966772 296.66355693 -218.97387285 296.65804621 -216.46801758 296.65258789 C-214.67449444 296.65230591 -212.88097119 296.65246397 -211.08744812 296.6530304 C-206.21173814 296.65331793 -201.33605264 296.64742829 -196.46034837 296.64045644 C-191.36742161 296.63421559 -186.27449432 296.63361852 -181.18156433 296.63243103 C-171.53434932 296.62931988 -161.88714561 296.62110938 -152.23993558 296.61108154 C-141.25821432 296.59991372 -130.27649254 296.59440826 -119.29476702 296.58938611 C-96.70171341 296.5789266 -74.10866984 296.56133132 -51.515625 296.5390625 C-51.05542969 295.58773437 -50.59523438 294.63640625 -50.12109375 293.65625 C-48.46194179 290.43483086 -47.74049894 289.10792009 -44.515625 287.5390625 C-39.87032322 287.02291786 -37.67211205 286.86025489 -33.640625 289.2265625 C-31.4389493 291.62250371 -30.62575115 293.52371986 -29.515625 296.5390625 C-19.9536136 296.6086065 -10.3916894 296.66189606 -0.82948017 296.69449902 C3.61075976 296.71014767 8.05082652 296.73137127 12.4909668 296.76538086 C16.77683525 296.79800294 21.06253724 296.81592154 25.34852028 296.82369423 C26.98278231 296.82923263 28.61703535 296.84004785 30.25122643 296.85625267 C32.54227686 296.87806522 34.83264154 296.88102789 37.1237793 296.87963867 C39.07902779 296.88963142 39.07902779 296.88963142 41.07377625 296.89982605 C45.0099455 296.48346913 47.6675045 295.355933 50.484375 292.5390625 C50.55617464 291.01978212 50.56829507 289.49738768 50.546875 287.9765625 C50.53333984 286.73712891 50.53333984 286.73712891 50.51953125 285.47265625 C50.50792969 284.83457031 50.49632812 284.19648438 50.484375 283.5390625 C49.55496094 283.11496094 48.62554687 282.69085938 47.66796875 282.25390625 C34.8782415 276.25828952 26.84345871 268.93849271 21.83984375 255.30078125 C20.32600241 250.56401782 19.98174145 246.17671233 20.046875 241.2265625 C20.05589844 240.39769531 20.06492187 239.56882812 20.07421875 238.71484375 C20.40915229 226.7688808 24.36345864 217.38555902 32.484375 208.5390625 C37.93892349 203.88105125 44.00056957 200.54082428 50.484375 197.5390625 C50.59304802 195.95726635 50.67027327 194.37329097 50.734375 192.7890625 C50.78078125 191.90734375 50.8271875 191.025625 50.875 190.1171875 C50.34483438 186.61809442 49.28192122 185.67992678 46.484375 183.5390625 C43.86319171 183.16451269 41.66867638 183.03095054 39.05371094 183.08496094 C38.31185547 183.08437683 37.57 183.08379272 36.80566406 183.08319092 C34.35954598 183.08597225 31.91465453 183.11706464 29.46875 183.1484375 C27.77053493 183.15589976 26.07231124 183.16159277 24.37408447 183.16558838 C19.9088149 183.18084599 15.44406747 183.22012861 10.97900391 183.2644043 C6.42097029 183.30535443 1.86285213 183.32359883 -2.6953125 183.34375 C-11.63564581 183.38662297 -20.57559195 183.45487565 -29.515625 183.5390625 C-30.12792969 184.663125 -30.74023438 185.7871875 -31.37109375 186.9453125 C-32.7426158 189.46313825 -33.36487054 190.44127582 -35.828125 192.0390625 C-39.39612297 192.70287608 -41.99884404 192.43424311 -45.515625 191.5390625 C-48.4902329 189.20761307 -49.90451442 186.89495659 -51.515625 183.5390625 C-75.43712364 183.44568677 -99.35859503 183.37511644 -123.28023911 183.33181381 C-134.38708329 183.31117465 -145.49381435 183.28302816 -156.60058594 183.23730469 C-166.27946047 183.19747841 -175.95825308 183.17163954 -185.63720727 183.16270852 C-190.76379296 183.15748664 -195.89014428 183.1451852 -201.01665497 183.11614227 C-205.83963372 183.08903969 -210.66228101 183.08060706 -215.48532867 183.08663177 C-217.25747986 183.08552922 -219.02964185 183.07754467 -220.80172729 183.0622406 C-223.21797999 183.04239288 -225.6329747 183.0471035 -228.04925537 183.05804443 C-229.10568005 183.04056738 -229.10568005 183.04056738 -230.18344665 183.02273726 C-233.54644032 183.06401198 -235.25375274 183.33866355 -237.95785904 185.40799332 Z " fill="#000000" transform="translate(363.515625,89.4609375)"/>
<path d="M0 0 C3.6237814 3.71216631 4.44799729 6.87983763 4.53125 11.875 C3.42776181 16.28895276 1.56810327 18.98616106 -2.20751953 21.42724609 C-5.04016801 22.93500559 -7.90728468 24.32477151 -10.8125 25.6875 C-11.87911865 26.20368896 -12.9457373 26.71987793 -14.04467773 27.25170898 C-17.35596252 28.84991545 -20.67728661 30.42571858 -24 32 C-25.96425166 32.94383632 -27.92782376 33.88908856 -29.890625 34.8359375 C-33.66336775 36.65362834 -37.44400453 38.45327601 -41.23046875 40.2421875 C-45.26114369 42.15287248 -49.25569541 44.12388109 -53.23828125 46.1328125 C-54.2655835 46.64384521 -55.29288574 47.15487793 -56.35131836 47.68139648 C-58.30849806 48.65627267 -60.25908449 49.64454808 -62.20141602 50.64868164 C-67.7502832 53.38870794 -72.75841553 55.27286157 -79 54 C-82.56248142 52.04030562 -84.69100339 49.92698983 -86 46 C-86.37714343 40.90856368 -86.11519466 38.06985108 -83 34 C-80.58415519 32.43853933 -78.3112603 31.14246742 -75.75 29.875 C-75.00403564 29.49303467 -74.25807129 29.11106934 -73.48950195 28.7175293 C-66.49756939 25.16982114 -59.41157267 21.8091314 -52.32348633 18.45874023 C-46.68746022 15.78904366 -41.08602172 13.06124083 -35.515625 10.2578125 C-34.8846138 9.94041611 -34.2536026 9.62301971 -33.60346985 9.29600525 C-30.50417582 7.73522416 -27.40807737 6.16839733 -24.31518555 4.5949707 C-23.18894775 4.02609131 -22.06270996 3.45721191 -20.90234375 2.87109375 C-19.90710693 2.36505615 -18.91187012 1.85901855 -17.88647461 1.33764648 C-11.36436559 -1.68482119 -6.73367057 -2.88768415 0 0 Z " fill="#000000" transform="translate(225,186)"/>
<path d="M0 0 C0.77108597 -0.0049649 1.54217194 -0.00992981 2.33662415 -0.01504517 C4.88873181 -0.02965526 7.4407773 -0.03646712 9.99291992 -0.04199219 C11.76787823 -0.04774491 13.54283652 -0.05350263 15.3177948 -0.05926514 C19.04096771 -0.06977207 22.76411904 -0.07561664 26.48730469 -0.07910156 C31.25213595 -0.0845834 36.01668104 -0.10860603 40.78142262 -0.13707352 C44.44891689 -0.15572167 48.11634256 -0.16090667 51.78388023 -0.16243744 C53.54011282 -0.16545995 55.29634431 -0.17347493 57.05253029 -0.18662262 C59.51310447 -0.20372764 61.9729838 -0.20179212 64.43359375 -0.1953125 C65.15536804 -0.20452728 65.87714233 -0.21374207 66.62078857 -0.22323608 C71.28234439 -0.18489163 74.44879831 0.71248788 78.41088867 3.16113281 C80.8186619 6.05046069 81.37204266 7.85591417 81.84838867 11.59863281 C81.32983139 15.82117069 80.07738035 17.88515732 77.41088867 21.16113281 C73.67580492 23.65118865 70.76362987 23.45677214 66.4387207 23.45166016 C65.22116089 23.46173599 65.22116089 23.46173599 63.97900391 23.47201538 C61.29217427 23.49103337 58.60559395 23.49492153 55.91870117 23.49707031 C54.05166521 23.5034958 52.18463026 23.51022397 50.31759644 23.51724243 C46.40189276 23.52922484 42.48627736 23.53292229 38.57055664 23.53173828 C33.55441386 23.53153508 28.53883758 23.55883372 23.52282906 23.5932827 C19.66577559 23.61552746 15.80885895 23.61957656 11.95174789 23.61851883 C10.10257897 23.62087858 8.25340649 23.62972312 6.40430069 23.64518356 C3.81641308 23.66479396 1.22975335 23.65902535 -1.3581543 23.64697266 C-2.50231308 23.66383118 -2.50231308 23.66383118 -3.66958618 23.68103027 C-8.60408536 23.62267156 -11.12062969 22.67169139 -14.58911133 19.16113281 C-17.03949362 15.48919496 -16.78253546 12.59527074 -16.20239258 8.35253906 C-15.24687055 4.93822148 -13.3534565 3.26730056 -10.58911133 1.16113281 C-7.00385311 -0.03395326 -3.73209286 0.00573191 0 0 Z " fill="#000000" transform="translate(187.589111328125,297.8388671875)"/>
<path d="M0 0 C1.12583496 -0.00788544 1.12583496 -0.00788544 2.27441406 -0.01593018 C4.73524289 -0.02904579 7.19541553 -0.02042249 9.65625 -0.01025391 C11.37825646 -0.01227708 13.10026208 -0.01519054 14.82226562 -0.01895142 C18.42326044 -0.02336333 22.02403131 -0.01698034 25.625 -0.00292969 C30.22824939 0.01416158 34.83097394 0.00431431 39.4342041 -0.01364708 C42.98767004 -0.02451562 46.54101266 -0.02102453 50.09448242 -0.0132637 C51.79126041 -0.01127017 53.48804978 -0.01369104 55.18481445 -0.02070236 C57.56100901 -0.02836767 59.93636732 -0.01664262 62.3125 0 C63.00569336 -0.00607269 63.69888672 -0.01214539 64.41308594 -0.0184021 C69.41879728 0.04616789 72.78854281 1.10342882 77.15625 3.38818359 C80.35159616 7.58207543 80.41677596 11.10215637 80.06640625 16.14208984 C78.68482003 19.55158373 76.2519923 21.54990189 73.15625 23.38818359 C70.19344312 23.87425158 67.81147787 24.07475878 64.859375 24.03515625 C63.6435675 24.04829865 63.6435675 24.04829865 62.40319824 24.06170654 C59.73699635 24.08362528 57.0724673 24.06917548 54.40625 24.05224609 C52.54589522 24.05561641 50.68554258 24.06047083 48.82519531 24.06674194 C44.93142679 24.07410305 41.03823284 24.06343247 37.14453125 24.04003906 C32.16085067 24.01155159 27.17851646 24.02795967 22.19488525 24.05790138 C18.35487783 24.07599506 14.51518805 24.07020687 10.6751709 24.05726242 C8.83801106 24.05393412 7.00082211 24.05799519 5.16369629 24.06966019 C2.59273225 24.08240338 0.02392866 24.06294561 -2.546875 24.03515625 C-3.67857117 24.05033798 -3.67857117 24.05033798 -4.83312988 24.06582642 C-10.59561369 23.95080678 -12.96439609 22.36170428 -16.84375 18.38818359 C-18.54563247 14.18825904 -18.11000758 10.28680293 -16.84375 6.01318359 C-12.62894416 0.48125092 -6.56323285 -0.05749694 0 0 Z " fill="#000000" transform="translate(188.84375,337.61181640625)"/>
<path d="M0 0 C3.52185256 1.97678176 5.69957163 4.0987149 7 8 C8.00724893 20.36769587 8.00724893 20.36769587 5.125 24.75 C2.15530977 27.89437789 0.40329161 28.21066629 -3.8125 28.375 C-7.85263248 28.35164663 -8.7283867 28.21063888 -12.0625 25.625 C-14.96631022 21.69080551 -15.18370215 19.56591711 -15.25 14.6875 C-15.27578125 13.55699219 -15.3015625 12.42648437 -15.328125 11.26171875 C-14.88826814 6.88933208 -13.26323124 4.35680393 -10.3125 1.1875 C-6.88870146 -0.57066682 -3.70750322 -0.77565806 0 0 Z " fill="#000000" transform="translate(327,315)"/>
<path d="M0 0 C3.05849436 2.82910728 3.87377998 4.9652588 4.375 9.07421875 C4.72649638 18.70741653 4.72649638 18.70741653 2.25 22.6875 C-0.40517871 25.41643367 -2.35592666 26.91316514 -6.21875 27.1171875 C-10.02280786 26.71333204 -12.38312688 26.46265484 -15.5 24.125 C-19.2317621 18.83833702 -18.54012666 12.192438 -18 6 C-16.76847601 2.18579426 -14.78555522 0.42848466 -11.25 -1.5 C-7.02646531 -2.14977457 -3.87883737 -1.82387885 0 0 Z " fill="#000000" transform="translate(330,347)"/>
<path d="M0 0 C3.34625024 2.52676039 4.67977847 4.03933542 6 8 C6.1447963 9.95475009 6.22067502 11.9151138 6.25 13.875 C6.27578125 14.90367187 6.3015625 15.93234375 6.328125 16.9921875 C5.86968667 21.19453888 4.15264481 23.7619741 1.3125 26.8125 C-2.11129854 28.57066682 -5.29249678 28.77565806 -9 28 C-12.52185256 26.02321824 -14.69957163 23.9012851 -16 20 C-16.14554833 17.8783532 -16.22080412 15.75143294 -16.25 13.625 C-16.27578125 12.50351562 -16.3015625 11.38203125 -16.328125 10.2265625 C-15.96396428 6.64564874 -15.1562444 4.85148207 -13 2 C-8.77005384 -0.8199641 -4.96779552 -0.79231188 0 0 Z " fill="#000000" transform="translate(328,285)"/>
<path d="M0 0 C4.49300414 2.50772324 6.45834664 5.90713694 8.328125 10.55859375 C9.44011085 14.59924002 9.43729894 18.04742792 8 22 C6.18097302 24.60120859 4.8896438 25.34113041 2 27 C-1.72039259 27.52216036 -4.10169907 27.32082176 -7.625 26.0625 C-11.97265488 22.28690497 -14.26423868 17.29925412 -16 11.875 C-16 7.87357675 -15.01533861 5.44557891 -13 2 C-8.50699977 -1.26763653 -5.30531195 -1.44690326 0 0 Z " fill="#000000" transform="translate(305,213)"/>
<path d="M0 0 C4.39257675 4.39257675 7.13723302 9.31901758 7.4375 15.5625 C7.30096641 19.82378508 6.16077448 22.02515343 3 25 C-0.47568731 26.73784366 -4.19982357 26.44863194 -8 26 C-12.60500467 23.64633095 -14.39836866 20.01853819 -16.26953125 15.375 C-17.43541777 11.58431014 -17.52832984 8.96247377 -17 5 C-15.09654278 1.63234491 -13.62149958 0.31765534 -10.1875 -1.4375 C-6.11049661 -2.15697119 -3.80013242 -1.61857492 0 0 Z " fill="#000000" transform="translate(294,187)"/>
<path d="M0 0 C4.86867848 3.28106593 7.40286868 8.43789731 9 14 C9.34592365 17.2228553 8.9732012 18.75599601 8 22 C5.33085861 25.20296967 3.81513732 26.61081414 -0.22265625 27.4765625 C-4.29258361 27.73475489 -6.40846691 27.40750057 -9.8125 25.0625 C-13.38149817 20.06590257 -16.48187161 15.08850239 -16.0625 8.75 C-13.6440276 0.21421506 -8.22618006 -1.6425211 0 0 Z " fill="#000000" transform="translate(280,159)"/>
</svg>
